<?xml version="1.0" encoding="UTF-8"?>
<svg xmlns="http://www.w3.org/2000/svg" baseProfile="tiny" version="1.2" viewBox="0 0 256 256">
  <!-- Generator: Adobe Illustrator 29.4.0, SVG Export Plug-In . SVG Version: 2.1.0 Build 152)  -->
  <rect width="256" height="256" fill="#1d2327"/>
  <path d="M127.96,213.72c-46.41-.06-83.98-38.54-83.92-85.96-2.15-74.44,93.34-114.49,143.27-60.77,2.07-1.42,14.33-16.48,17.21-15.64,3.29-.41,7.54.6,7.47,4.77,0,0,0,47.69,0,47.69,0,2.63-2.09,4.77-4.67,4.77h-46.68c-2.58,0-4.67-2.14-4.67-4.77.04-2.04-.34-4.73,1.39-6.2,0,0,16.63-16.98,16.63-16.98-61.76-60.62-151.59,31.7-91.86,94.44,37.46,40.24,109.28,12.81,111.26-42.94.15-2.52,2.2-4.49,4.67-4.48,3.89.44,14.52-2.08,13.92,5.05-2.56,45.49-39.42,81.03-84.02,81.01Z" fill="#f0f0f1"/>
  <g>
    <polygon points="97.88 102.95 95.75 101.12 94.25 110.51 114.76 110.51 107.73 154.88 117.9 154.88 124.92 110.51 145.97 110.51 147.16 102.95 97.88 102.95" fill="#2c3338"/>
    <polygon points="134.34 135.49 135.55 127.79 161.01 127.79 161.75 123.17 129.14 123.17 129.8 124.49 127.32 140.11 152.78 140.11 151.18 150.19 127.26 150.19 125.9 149.06 124.98 154.88 156.72 154.88 159.8 135.49 134.34 135.49" fill="#2c3338"/>
  </g>
</svg>